<svg xmlns="http://www.w3.org/2000/svg" viewBox="0 0 64 64" role="img" aria-label="Xbox">
  <circle cx="32" cy="32" r="28" fill="#fff"/>
  <path d="M16.5 20.5c4.2-5.2 9.4-7.8 15.5-7.8s11.3 2.6 15.5 7.8c-4.4-2.8-8.6-4.1-12.7-3.8-1 .1-1.9.4-2.8.9-.9-.5-1.8-.8-2.8-.9-4.1-.3-8.3 1-12.7 3.8Z" fill="#10163f"/>
  <path d="M17.1 21.8c6.3 1.2 11.3 4.5 14.9 9.8-4.7 6.3-9.3 11.5-13.9 15.5A27.9 27.9 0 0 1 8 32c0-3.8.8-7.2 2.2-10.2 2.1-.5 4.4-.5 6.9 0Z" fill="#10163f"/>
  <path d="M46.9 21.8c-6.3 1.2-11.3 4.5-14.9 9.8 4.7 6.3 9.3 11.5 13.9 15.5A27.9 27.9 0 0 0 56 32c0-3.8-.8-7.2-2.2-10.2-2.1-.5-4.4-.5-6.9 0Z" fill="#10163f"/>
  <path d="M32 32.3c3.7 5.5 7.9 10.6 12.7 15.2A27.8 27.8 0 0 1 32 52a27.8 27.8 0 0 1-12.7-4.5c4.8-4.6 9-9.7 12.7-15.2Z" fill="#10163f"/>
</svg>